<?xml version="1.0" encoding="UTF-8" standalone="no"?>
<!-- Created with Inkscape (http://www.inkscape.org/) -->

<svg
   width="117.63436mm"
   height="17.79826mm"
   viewBox="0 0 117.63436 17.79826"
   version="1.1"
   id="svg1"
   inkscape:version="1.4 (86a8ad7, 2024-10-11)"
   sodipodi:docname="Kraftform_Phasenprüfer_Outline.svg"
   xmlns:inkscape="http://www.inkscape.org/namespaces/inkscape"
   xmlns:sodipodi="http://sodipodi.sourceforge.net/DTD/sodipodi-0.dtd"
   xmlns="http://www.w3.org/2000/svg"
   xmlns:svg="http://www.w3.org/2000/svg">
  <sodipodi:namedview
     id="namedview1"
     pagecolor="#505050"
     bordercolor="#eeeeee"
     borderopacity="1"
     inkscape:showpageshadow="0"
     inkscape:pageopacity="0"
     inkscape:pagecheckerboard="0"
     inkscape:deskcolor="#505050"
     inkscape:document-units="mm"
     inkscape:zoom="1.0592242"
     inkscape:cx="-73.166758"
     inkscape:cy="196.84218"
     inkscape:window-width="1147"
     inkscape:window-height="1211"
     inkscape:window-x="689"
     inkscape:window-y="0"
     inkscape:window-maximized="0"
     inkscape:current-layer="layer1" />
  <defs
     id="defs1" />
  <g
     inkscape:label="Layer 1"
     inkscape:groupmode="layer"
     id="layer1"
     transform="translate(-84.931249,-111.12499)">
    <path
       style="fill:none;stroke:#000000;stroke-width:0.1"
       d="m 84.981583,111.18571 c 0.05432,8.15016 1.80161,14.38539 4.995794,14.6127 5.953165,-0.70711 2.140384,-5.15617 15.237173,-5.49538 6.90415,-0.0492 9.01916,0.18191 15.71641,2.92983 0.95417,0.3915 3.05853,1.76482 4.95368,1.62884 11.95238,-0.92801 14.2679,-0.84111 24.09308,1.86384 2.95594,1.08132 3.46213,1.78248 7.56779,2.13277 2.4032,0.12657 5.15227,-0.5581 8.62932,-1.81113 8.16061,-3.37623 17.41396,-3.73375 31.05601,-4.27748 3.5106,-0.65623 4.17255,-4.14769 5.27681,-11.5947 z"
       id="path1"
       sodipodi:nodetypes="cccsccccccc" />
  </g>
</svg>
